<svg id="Layer_1" enable-background="new 0 0 512 512" height="512" viewBox="0 0 512 512" width="512" xmlns="http://www.w3.org/2000/svg"><g><g><path d="m436 136h-32c-8.837 0-16-7.163-16-16 0-8.837 7.163-16 16-16h32c8.837 0 16 7.163 16 16 0 8.837-7.163 16-16 16z" fill="#32283c"/></g><g><path d="m412 280h-32c-44.183 0-80 35.817-80 80 0 44.183 35.817 80 80 80h32c44.183 0 80-35.817 80-80 0-44.183-35.817-80-80-80z" fill="##069b08"/></g><g><circle cx="380" cy="360" fill="#463c4b" r="80"/></g><g><circle cx="380" cy="360" fill="#e6e6eb" r="40"/></g><g><circle cx="380" cy="360" fill="#a5c3dc" r="16"/></g><g><path d="m164 280h-32c-44.183 0-80 35.817-80 80 0 44.183 35.817 80 80 80h32c44.183 0 80-35.817 80-80 0-44.183-35.817-80-80-80z" fill="#32283c"/></g><g><circle cx="132" cy="360" fill="#463c4b" r="80"/></g><g><circle cx="132" cy="360" fill="#e6e6eb" r="40"/></g><g><circle cx="132" cy="360" fill="#a5c3dc" r="16"/></g><g><path d="m372 152h32c17.673 0 32-14.327 32-32 0-17.673-14.327-32-32-32h-32c-17.673 0-32 14.327-32 32 0 17.673 14.327 32 32 32z" fill="#1b8c0e"/></g><g><path d="m372 152h32c17.673 0 32-14.327 32-32h-96c0 17.673 14.327 32 32 32z" fill="#069b08"/></g><g><path d="m228 216h-176c-8.837 0-16-7.163-16-16v-112c0-8.837 7.163-16 16-16h176c8.837 0 16 7.163 16 16v112c0 8.837-7.163 16-16 16z" fill="#f0915a"/></g><g><path d="m148 216h-96c-8.837 0-16-7.163-16-16v-112c0-8.837 7.163-16 16-16h96c8.837 0 16 7.163 16 16v112c0 8.837-7.163 16-16 16z" fill="#fab991"/></g><g><path d="m308 216c-35.346 0-64 28.654-64 64 0 35.346 28.654 64 64 64h-48c-35.346 0-64-28.654-64-64 0-35.346 28.654-64 64-64z" fill="#069b08"/></g><g><path d="m324 280c0 36.349-30.302 65.62-67.023 63.93-32.787-1.508-59.399-28.12-60.908-60.908-1.689-36.72 27.582-67.022 63.931-67.022h-176c-35.346 0-64 28.654-64 64v64c0 8.837 7.163 16 16 16h224c44.183 0 80-35.817 80-80v-80c0-26.51 21.49-48 48-48h-16c-26.51 0-48 21.49-48 48z" fill="#1b8c0e"/></g><g><path d="m260 360h112c44.183 0 80-35.817 80-80v-80c0-26.51-21.49-48-48-48h-16c-26.51 0-48 21.49-48 48v80c0 44.183-35.817 80-80 80z" fill="#069b08"/></g><g><g><path d="m116 216h-32c35.346 0 64 28.654 64 64v64c0 8.837-7.163 16-16 16h32c8.837 0 16-7.163 16-16v-64c0-35.346-28.654-64-64-64z" fill="#069b08"/></g></g><g><g><path d="m204 216h112c4.418 0 8-3.582 8-8 0-22.091-17.909-40-40-40h-80c-4.418 0-8 3.582-8 8v32c0 4.418 3.582 8 8 8z" fill="#32283c"/></g><g><path d="m204 216h64c4.418 0 8-3.582 8-8 0-22.091-17.909-40-40-40h-32c-4.418 0-8 3.582-8 8v32c0 4.418 3.582 8 8 8z" fill="#463c4b"/></g></g><g><path d="m380 280h32c44.183 0 80 35.817 80 80h-192c44.183 0 80-35.817 80-80z" fill="#069b08"/></g><g><path d="m300 360c44.183 0 80-35.817 80-80 44.183 0 80 35.817 80 80z" fill="#1b8c0e"/></g><g><circle cx="404" cy="120" fill="#a5c3dc" r="32"/></g><g><circle cx="404" cy="120" fill="#e6e6eb" r="21.333"/></g><g><path d="m340 136h-32c-8.837 0-16-7.163-16-16 0-8.837 7.163-16 16-16h32c8.837 0 16 7.163 16 16 0 8.837-7.163 16-16 16z" fill="#32283c"/></g><g><circle cx="308" cy="120" fill="#463c4b" r="16"/></g><g><g><path d="m112 328h-56c-2.209 0-4 1.791-4 4 0 2.209 1.791 4 4 4h56c2.209 0 4-1.791 4-4 0-2.209-1.791-4-4-4z" fill="#463c4b"/></g><g><path d="m112 304h-56c-2.209 0-4 1.791-4 4 0 2.209 1.791 4 4 4h56c2.209 0 4-1.791 4-4 0-2.209-1.791-4-4-4z" fill="#463c4b"/></g><g><path d="m112 280h-56c-2.209 0-4 1.791-4 4 0 2.209 1.791 4 4 4h56c2.209 0 4-1.791 4-4 0-2.209-1.791-4-4-4z" fill="#463c4b"/></g></g><g><g><path d="m408 248h-24c-2.209 0-4 1.791-4 4 0 2.209 1.791 4 4 4h24c2.209 0 4-1.791 4-4 0-2.209-1.791-4-4-4z" fill="#32283c"/></g><g><path d="m408 232h-24c-2.209 0-4 1.791-4 4 0 2.209 1.791 4 4 4h24c2.209 0 4-1.791 4-4 0-2.209-1.791-4-4-4z" fill="#32283c"/></g><g><path d="m408 216h-24c-2.209 0-4 1.791-4 4 0 2.209 1.791 4 4 4h24c2.209 0 4-1.791 4-4 0-2.209-1.791-4-4-4z" fill="#32283c"/></g></g><g><path d="m108 96h-16c-4.418 0-8-3.582-8-8v-16h32v16c0 4.418-3.582 8-8 8z" fill="#e6e6eb"/></g><g><path d="m108 200h32c4.418 0 8-3.582 8-8v-16c0-4.418-3.582-8-8-8h-32c-4.418 0-8 3.582-8 8v16c0 4.418 3.582 8 8 8z" fill="#f0915a"/></g></g></svg>